# xmcd
# 
# Track frame offsets:
#     150
#     14407
#     28043
#     44707
#     61432
#     87742
#     98511
#     108180
#     120714
#     137263
#     151727
#     173206
#     190595
#     206343
#     223804
# 
# Disc length: 3107
# 
# Revision: 0
# Processed by: cddbd v1.5.2PL0 Copyright (c) Steve Scherf et al.
# Submitted via: fre:ac v1.0.27
# 
DISCID=c80c210f
DTITLE=Various Artist - Envie de Bretagne
DYEAR=0
DGENRE=Folk
TTITLE0=Nolwenn Leroy - Tri martolod
TTITLE1=Les Marins De Iroise - Santiano
TTITLE2=Tri Yann - La Jument de Michao
TTITLE3=Gilles Servant - La blanche Hermine
TTITLE4=Denez prigent - Gortoz a Ran
TTITLE5=Mikael Yaouank - Quinze Marins
TTITLE6=Glen Mor - O Keltia
TTITLE7=Serge Kerval - La Grande Goelette
TTITLE8=Djiboudjeb - Fes filles de Lorient
TTITLE9=Alan Stivell - Suite sudarmoricaine
TTITLE10=Manau - La Tribu de Dana
TTITLE11=Soldat Louis - Le Bagad de Lann Bihoue
TTITLE12=Gilles Servat - Je dors en Bretagne ce soir
TTITLE13=Matmatah - Lambe au Dro
TTITLE14=Tri Yann - Les prisons de Nante
EXTD=
EXTT0=
EXTT1=
EXTT2=
EXTT3=
EXTT4=
EXTT5=
EXTT6=
EXTT7=
EXTT8=
EXTT9=
EXTT10=
EXTT11=
EXTT12=
EXTT13=
EXTT14=
PLAYORDER=
